<?xml version="1.0" standalone="no"?>
<!DOCTYPE svg PUBLIC "-//W3C//DTD SVG 20010904//EN"
 "http://www.w3.org/TR/2001/REC-SVG-20010904/DTD/svg10.dtd">
<svg version="1.0" xmlns="http://www.w3.org/2000/svg"
 width="300.000000pt" height="300.000000pt" viewBox="0 0 300.000000 300.000000"
 preserveAspectRatio="xMidYMid meet">

<!-- White background circle -->
<circle cx="150" cy="150" r="145" fill="#ffffff" stroke="none"/>

<g transform="translate(0.000000,300.000000) scale(0.100000,-0.100000)"
fill="#000000" stroke="#000000" stroke-width="20">
<path d="M1319 2010 c-217 -53 -394 -194 -493 -392 -56 -114 -75 -184 -83
-309 -21 -345 195 -667 522 -776 73 -25 94 -27 235 -28 172 0 219 10 343 71
85 42 117 64 191 134 150 141 236 345 236 559 0 222 -81 406 -246 560 -89 83
-214 150 -338 181 -103 26 -261 26 -367 0z m381 -148 c176 -62 291 -164 374
-329 55 -109 73 -293 41 -418 -55 -217 -239 -403 -455 -460 -73 -20 -236 -19
-314 1 -195 50 -365 211 -433 409 -25 71 -28 95 -28 205 0 134 10 180 66 291
76 152 225 271 396 314 83 21 279 14 353 -13z"/>
<path d="M1465 1716 c-31 -46 25 -97 66 -60 24 22 24 46 1 67 -26 24 -49 21
-67 -7z"/>
<path d="M1228 1675 c-23 -51 47 -87 78 -40 12 18 11 24 -2 43 -21 31 -61 29
-76 -3z"/>
<path d="M1705 1680 c-17 -18 -17 -21 -1 -45 19 -28 47 -32 70 -9 21 20 20 37
-2 57 -24 22 -45 21 -67 -3z"/>
<path d="M1072 1508 c-32 -32 4 -87 48 -73 25 8 37 50 20 70 -15 18 -51 20
-68 3z"/>
<path d="M1868 1495 c-9 -21 -8 -28 7 -45 10 -11 26 -20 35 -20 9 0 25 9 35
20 27 30 7 70 -35 70 -23 0 -33 -6 -42 -25z"/>
<path d="M1476 1489 c-22 -32 -6 -63 33 -67 25 -3 33 2 43 22 9 22 8 29 -7 46
-23 26 -50 25 -69 -1z"/>
<path d="M1303 1469 c-27 -10 -31 -50 -7 -73 20 -20 38 -20 59 0 34 35 -6 91
-52 73z"/>
<path d="M1657 1464 c-4 -4 -7 -20 -7 -36 0 -21 7 -32 25 -40 34 -15 57 5 53
46 -3 26 -8 31 -33 34 -17 2 -34 0 -38 -4z"/>
<path d="M1467 1299 c-20 -28 -10 -58 21 -66 31 -7 56 7 60 36 7 48 -53 70
-81 30z"/>
<path d="M1278 1299 c-29 -16 -23 -67 8 -81 23 -11 29 -10 45 11 24 29 24 36
-1 61 -23 23 -28 24 -52 9z"/>
<path d="M1058 1293 c-34 -8 -35 -74 -1 -87 24 -10 65 21 61 46 -4 25 -36 47
-60 41z"/>
<path d="M1682 1288 c-26 -26 -7 -78 28 -78 9 0 25 9 35 20 37 41 -24 97 -63
58z"/>
<path d="M1905 1280 c-38 -42 25 -100 66 -59 24 24 24 34 -1 59 -25 25 -42 25
-65 0z"/>
<path d="M1322 1138 c-7 -7 -12 -21 -12 -33 0 -46 48 -60 74 -23 20 28 20 33
0 52 -18 19 -45 21 -62 4z"/>
<path d="M1618 1125 c-9 -21 -8 -28 7 -45 31 -34 75 -20 75 25 0 48 -62 63
-82 20z"/>
<path d="M1102 1083 c-35 -14 -36 -65 -1 -84 45 -23 80 38 43 75 -16 17 -21
18 -42 9z"/>
<path d="M1470 1060 c-11 -11 -20 -26 -20 -33 0 -18 32 -47 52 -47 17 0 48 31
48 48 0 15 -36 52 -50 52 -5 0 -19 -9 -30 -20z"/>
<path d="M1862 1068 c-33 -33 16 -91 57 -68 39 20 21 80 -24 80 -12 0 -26 -5
-33 -12z"/>
<path d="M1239 909 c-16 -30 3 -69 34 -69 29 0 47 17 47 45 0 45 -60 63 -81
24z"/>
<path d="M1702 918 c-29 -29 -7 -78 35 -78 30 0 46 31 33 64 -10 28 -47 35
-68 14z"/>
<path d="M1478 869 c-26 -15 -23 -65 3 -80 34 -18 69 3 69 40 0 42 -36 62 -72
40z"/>
<path d="M2371 1004 c0 -11 3 -14 6 -6 3 7 2 16 -1 19 -3 4 -6 -2 -5 -13z"/>
</g>
</svg>
